<svg width="36" height="35" viewBox="0 0 36 35" fill="none" xmlns="http://www.w3.org/2000/svg">
<g id="01 align center">
<path id="Vector" d="M35.2499 35H18.0257C14.6605 34.9984 11.3693 34.0125 8.55737 32.1638C5.74547 30.3151 3.53572 27.6842 2.20031 24.5953C0.864891 21.5064 0.462135 18.0944 1.04164 14.7794C1.62115 11.4645 3.15762 8.39147 5.46179 5.93884C7.76596 3.48621 10.7372 1.76111 14.0096 0.976011C17.2819 0.190916 20.7124 0.380119 23.8786 1.52032C27.0447 2.66051 29.8083 4.70191 31.8287 7.39306C33.8492 10.0842 35.0384 13.3076 35.2499 16.6661V16.7567V35ZM18.0257 3.375C14.2132 3.375 10.5569 4.88951 7.86107 7.58534C5.16524 10.2812 3.65073 13.9375 3.65073 17.75C3.65073 21.5625 5.16524 25.2188 7.86107 27.9147C10.5569 30.6105 14.2132 32.125 18.0257 32.125H32.3749V16.8027C32.1284 13.1634 30.51 9.75323 27.8466 7.26089C25.1833 4.76856 21.6734 3.37977 18.0257 3.375Z" fill="#686868"/>
<path id="Vector_2" d="M19.438 10.5623H10.813V13.4372H19.438V10.5623Z" fill="#686868"/>
<path id="Vector_3" d="M25.188 16.3127H10.813V19.1878H25.188V16.3127Z" fill="#686868"/>
<path id="Vector_4" d="M25.188 22.0625H10.813V24.9375H25.188V22.0625Z" fill="#686868"/>
</g>
</svg>
