<svg width="35" height="35" viewBox="0 0 35 35" fill="none" xmlns="http://www.w3.org/2000/svg">
<g id="fi-rs-document" clip-path="url(#clip0_162_387)">
<path id="Vector" d="M10.0623 17.75H24.4373V20.625H10.0623V17.75ZM10.0623 26.375H20.1248V23.5H10.0623V26.375ZM31.6248 11.4049V35H2.87476V4.8125C2.87476 3.66875 3.32911 2.57185 4.13786 1.7631C4.94661 0.954351 6.04351 0.5 7.18726 0.5L20.7199 0.5L31.6248 11.4049ZM21.5623 10.5625H26.7171L21.5623 5.40763V10.5625ZM28.7498 32.125V13.4375H18.6873V3.375H7.18726C6.80601 3.375 6.44037 3.52645 6.17079 3.79603C5.90121 4.06562 5.74976 4.43125 5.74976 4.8125V32.125H28.7498Z" fill="#686868"/>
</g>
<defs>
<clipPath id="clip0_162_387">
<rect width="34.5" height="34.5" fill="white" transform="translate(0 0.5)"/>
</clipPath>
</defs>
</svg>
