<svg width="46" height="46" viewBox="0 0 46 46" fill="none" xmlns="http://www.w3.org/2000/svg">
<g clip-path="url(#clip0_162_375)">
<path d="M45.9997 46H23.0342C18.5473 45.9979 14.159 44.6834 10.4098 42.2184C6.66055 39.7534 3.71421 36.2456 1.93366 32.1271C0.153107 28.0086 -0.383902 23.4592 0.388777 19.0393C1.16146 14.6193 3.21008 10.522 6.28231 7.25179C9.35454 3.98162 13.3162 1.68148 17.6793 0.634682C22.0424 -0.412112 26.6165 -0.159842 30.838 1.36042C35.0596 2.88069 38.7443 5.60254 41.4382 9.19074C44.1322 12.7789 45.7178 17.0768 45.9997 21.5548V21.6756V46ZM23.0342 3.83333C17.9509 3.83333 13.0758 5.85267 9.48135 9.44712C5.8869 13.0416 3.86756 17.9167 3.86756 23C3.86756 28.0833 5.8869 32.9584 9.48135 36.5529C13.0758 40.1473 17.9509 42.1667 23.0342 42.1667H42.1664V21.7369C41.8377 16.8845 39.6799 12.3376 36.1288 9.01452C32.5776 5.69141 27.8977 3.83969 23.0342 3.83333Z" fill="#EEF0FE"/>
<path d="M24.9172 13.4164H13.4172V17.2497H24.9172V13.4164Z" fill="#EEF0FE"/>
<path d="M32.5839 21.0836H13.4172V24.917H32.5839V21.0836Z" fill="#EEF0FE"/>
<path d="M32.5839 28.75H13.4172V32.5834H32.5839V28.75Z" fill="#EEF0FE"/>
</g>
<defs>
<clipPath id="clip0_162_375">
<rect width="46" height="46" fill="white"/>
</clipPath>
</defs>
</svg>
