<svg width="35" height="35" viewBox="0 0 35 35" fill="none" xmlns="http://www.w3.org/2000/svg">
<g id="fi-rr-alarm-clock" clip-path="url(#clip0_162_365)">
<path id="Vector" d="M18.6876 3.19831V1.6875C18.6876 1.30625 18.5362 0.940618 18.2666 0.671034C17.997 0.40145 17.6314 0.25 17.2501 0.25C16.8689 0.25 16.5032 0.40145 16.2336 0.671034C15.9641 0.940618 15.8126 1.30625 15.8126 1.6875V3.19831C12.9186 3.45777 10.1523 4.51104 7.81865 6.2421C5.48496 7.97316 3.6744 10.3148 2.58644 13.0091C1.49848 15.7033 1.17535 18.6456 1.65265 21.5118C2.12995 24.3779 3.38916 27.0567 5.29155 29.253C4.54026 29.6247 3.91245 30.2056 3.48372 30.9258C3.055 31.6461 2.84364 32.4749 2.87511 33.3125C2.87511 33.6937 3.02656 34.0594 3.29614 34.329C3.56573 34.5985 3.93136 34.75 4.31261 34.75C4.69386 34.75 5.05949 34.5985 5.32907 34.329C5.59866 34.0594 5.75011 33.6937 5.75011 33.3125C5.73816 32.8694 5.89723 32.4387 6.19432 32.1098C6.49141 31.7809 6.90372 31.5789 7.34573 31.5458C7.44461 31.527 7.54105 31.4971 7.63323 31.4567C10.3868 33.5924 13.7726 34.7515 17.2573 34.7515C20.742 34.7515 24.1278 33.5924 26.8814 31.4567C26.9655 31.4954 27.0531 31.5263 27.143 31.5487C27.5865 31.5789 28.0013 31.7793 28.3007 32.1079C28.6002 32.4365 28.7611 32.8681 28.7501 33.3125C28.7501 33.6937 28.9016 34.0594 29.1711 34.329C29.4407 34.5985 29.8064 34.75 30.1876 34.75C30.5689 34.75 30.9345 34.5985 31.2041 34.329C31.4737 34.0594 31.6251 33.6937 31.6251 33.3125C31.6566 32.4749 31.4452 31.6461 31.0165 30.9258C30.5878 30.2056 29.96 29.6247 29.2087 29.253C31.1111 27.0567 32.3703 24.3779 32.8476 21.5118C33.3249 18.6456 33.0017 15.7033 31.9138 13.0091C30.8258 10.3148 29.0153 7.97316 26.6816 6.2421C24.3479 4.51104 21.5816 3.45777 18.6876 3.19831ZM4.31261 18.9375C4.31261 16.3787 5.07138 13.8774 6.49297 11.7498C7.91456 9.62225 9.93512 7.96402 12.2991 6.98481C14.6632 6.0056 17.2645 5.74939 19.7741 6.24859C22.2837 6.74779 24.589 7.97996 26.3983 9.78931C28.2076 11.5986 29.4398 13.9039 29.939 16.4135C30.4382 18.9231 30.182 21.5244 29.2028 23.8885C28.2236 26.2525 26.5654 28.273 24.4378 29.6946C22.3102 31.1162 19.8089 31.875 17.2501 31.875C13.8202 31.8708 10.5319 30.5064 8.10654 28.0811C5.68119 25.6557 4.31679 22.3675 4.31261 18.9375Z" fill="#686868"/>
<path id="Vector_2" d="M27.6212 0.250037C27.24 0.250037 26.8743 0.401488 26.6047 0.671071C26.3352 0.940655 26.1837 1.30629 26.1837 1.68754C26.1837 2.06879 26.3352 2.43442 26.6047 2.704C26.8743 2.97359 27.24 3.12504 27.6212 3.12504C28.1225 3.08693 28.6263 3.15074 29.1022 3.3126C29.5782 3.47447 30.0164 3.73105 30.3905 4.06686C30.7646 4.40268 31.0668 4.81077 31.2789 5.26655C31.491 5.72232 31.6086 6.21633 31.6247 6.71879C31.6247 7.10004 31.7761 7.46567 32.0457 7.73525C32.3153 8.00484 32.6809 8.15629 33.0622 8.15629C33.4434 8.15629 33.809 8.00484 34.0786 7.73525C34.3482 7.46567 34.4997 7.10004 34.4997 6.71879C34.4813 5.83975 34.2877 4.97321 33.9304 4.16985C33.5731 3.3665 33.0592 2.64248 32.4187 2.04013C31.7782 1.43779 31.024 0.969228 30.2003 0.661858C29.3765 0.354489 28.4997 0.214485 27.6212 0.250037Z" fill="#686868"/>
<path id="Vector_3" d="M2.875 6.71879C2.89102 6.21633 3.00863 5.72232 3.22075 5.26655C3.43286 4.81077 3.73507 4.40268 4.10917 4.06686C4.48327 3.73105 4.9215 3.47447 5.39744 3.3126C5.87338 3.15074 6.37717 3.08693 6.87844 3.12504C7.25969 3.12504 7.62532 2.97359 7.8949 2.704C8.16449 2.43442 8.31594 2.06879 8.31594 1.68754C8.31594 1.30629 8.16449 0.940655 7.8949 0.671071C7.62532 0.401488 7.25969 0.250037 6.87844 0.250037C5.99993 0.214485 5.12315 0.354489 4.29939 0.661858C3.47564 0.969228 2.72145 1.43779 2.08096 2.04013C1.44047 2.64248 0.926536 3.3665 0.569222 4.16985C0.211909 4.97321 0.0183946 5.83975 0 6.71879C0 7.10004 0.15145 7.46567 0.421034 7.73525C0.690618 8.00484 1.05625 8.15629 1.4375 8.15629C1.81875 8.15629 2.18438 8.00484 2.45397 7.73525C2.72355 7.46567 2.875 7.10004 2.875 6.71879Z" fill="#686868"/>
<path id="Vector_4" d="M18.6877 16.9049V10.3125C18.6877 9.93125 18.5363 9.56562 18.2667 9.29603C17.9971 9.02645 17.6315 8.875 17.2502 8.875C16.869 8.875 16.5034 9.02645 16.2338 9.29603C15.9642 9.56562 15.8127 9.93125 15.8127 10.3125V17.5C15.8128 17.8812 15.9643 18.2468 16.2339 18.5163L20.5464 22.8288C20.8175 23.0907 21.1807 23.2356 21.5576 23.2323C21.9345 23.229 22.295 23.0778 22.5615 22.8113C22.8281 22.5448 22.9792 22.1842 22.9825 21.8073C22.9858 21.4304 22.8409 21.0673 22.5791 20.7962L18.6877 16.9049Z" fill="#686868"/>
</g>
<defs>
<clipPath id="clip0_162_365">
<rect width="34.5" height="34.5" fill="white" transform="translate(0 0.25)"/>
</clipPath>
</defs>
</svg>
