<svg width="230" height="47" viewBox="0 0 230 47" fill="none" xmlns="http://www.w3.org/2000/svg">
<path d="M5.59998 4.19995H19.32C19.32 5.59171 18.1917 6.71995 16.8 6.71995H8.11998C6.72822 6.71995 5.59998 5.59171 5.59998 4.19995Z" fill="#121824"/>
<rect x="10.08" y="16.8" width="4.76" height="14.28" rx="1.4" fill="#1D53E7"/>
<rect x="5.32001" y="26.3201" width="4.76" height="14.28" rx="1.4" transform="rotate(-90 5.32001 26.3201)" fill="#1D53E7"/>
<rect x="0.84" y="3.64005" width="23.24" height="40.32" rx="4.76" stroke="#121824" stroke-width="1.68"/>
<path d="M59.6953 11.1942V34.4483H52.6068V22.8541L49.1107 34.4483H43.0166L39.5205 22.8541V34.4483H32.4V11.1942H41.1242L46.1278 25.1532L51.0031 11.1942H59.6953Z" fill="#1D53E7"/>
<path d="M68.7938 34.6782C66.6556 34.6782 64.6883 34.1637 62.8922 33.1345C61.1174 32.1054 59.7061 30.6821 58.6583 28.8647C57.6106 27.0473 57.0867 25 57.0867 22.7227C57.0867 20.4455 57.6106 18.3982 58.6583 16.5807C59.7061 14.7633 61.1174 13.351 62.8922 12.3438C64.6883 11.3146 66.6556 10.8 68.7938 10.8C70.9321 10.8 72.8887 11.3146 74.6635 12.3438C76.4382 13.351 77.8388 14.7633 78.8652 16.5807C79.913 18.3982 80.4369 20.4455 80.4369 22.7227C80.4369 25 79.913 27.0473 78.8652 28.8647C77.8388 30.6821 76.4276 32.1054 74.6314 33.1345C72.8566 34.1637 70.9108 34.6782 68.7938 34.6782ZM68.7938 27.8794C70.2051 27.8794 71.2956 27.4195 72.0654 26.4999C72.8352 25.5583 73.2201 24.2993 73.2201 22.7227C73.2201 21.1243 72.8352 19.8652 72.0654 18.9456C71.2956 18.004 70.2051 17.5332 68.7938 17.5332C67.3612 17.5332 66.26 18.004 65.4902 18.9456C64.7204 19.8652 64.3355 21.1243 64.3355 22.7227C64.3355 24.2993 64.7204 25.5583 65.4902 26.4999C66.26 27.4195 67.3612 27.8794 68.7938 27.8794Z" fill="#1D53E7"/>
<path d="M92.9404 22.5256C94.3089 22.8541 95.3673 23.5329 96.1157 24.562C96.8855 25.5693 97.2704 26.7407 97.2704 28.0764C97.2704 30.1128 96.6075 31.6894 95.2818 32.8061C93.9774 33.9009 92.0957 34.4483 89.6367 34.4483H77.7371V11.1942H89.316C91.6253 11.1942 93.4429 11.7088 94.7686 12.7379C96.0943 13.767 96.7572 15.2669 96.7572 17.2376C96.7572 18.5952 96.4044 19.7448 95.6988 20.6863C95.0145 21.606 94.095 22.2191 92.9404 22.5256ZM84.8576 20.2594H87.616C88.2575 20.2594 88.7279 20.128 89.0273 19.8652C89.348 19.6025 89.5084 19.1974 89.5084 18.65C89.5084 18.0806 89.348 17.6646 89.0273 17.4019C88.7279 17.1172 88.2575 16.9749 87.616 16.9749H84.8576V20.2594ZM88.0971 28.6019C88.7386 28.6019 89.209 28.4815 89.5084 28.2406C89.8291 27.9779 89.9895 27.5619 89.9895 26.9925C89.9895 25.8758 89.3587 25.3175 88.0971 25.3175H84.8576V28.6019H88.0971Z" fill="#1D53E7"/>
<path d="M105.906 11.1942V34.4483H98.7859V11.1942H105.906Z" fill="#1D53E7"/>
<path d="M114.975 28.9304H121.839V34.4483H107.855V11.1942H114.975V28.9304Z" fill="#1D53E7"/>
<path d="M130.86 17.0077V19.8652H137.917V25.3503H130.86V28.6348H138.879V34.4483H123.74V11.1942H138.879V17.0077H130.86Z" fill="#1D53E7"/>
<path d="M143.359 23.9721C143.359 21.8234 143.843 19.8959 144.812 18.1896C145.781 16.4622 147.098 15.114 148.762 14.145C150.447 13.176 152.312 12.6915 154.355 12.6915C156.756 12.6915 158.852 13.2708 160.643 14.4294C162.434 15.588 163.74 17.2311 164.561 19.3587H161.117C160.506 18.0316 159.621 17.0099 158.463 16.2937C157.325 15.5775 155.956 15.2193 154.355 15.2193C152.817 15.2193 151.437 15.5775 150.216 16.2937C148.994 17.0099 148.035 18.0316 147.34 19.3587C146.645 20.6648 146.297 22.2026 146.297 23.9721C146.297 25.7206 146.645 27.2584 147.34 28.5855C148.035 29.8916 148.994 30.9027 150.216 31.619C151.437 32.3352 152.817 32.6933 154.355 32.6933C155.956 32.6933 157.325 32.3457 158.463 31.6506C159.621 30.9343 160.506 29.9126 161.117 28.5855H164.561C163.74 30.6921 162.434 32.3247 160.643 33.4833C158.852 34.6208 156.756 35.1896 154.355 35.1896C152.312 35.1896 150.447 34.7156 148.762 33.7677C147.098 32.7986 145.781 31.461 144.812 29.7547C143.843 28.0483 143.359 26.1208 143.359 23.9721ZM171.717 11.6171V35H168.842V11.6171H171.717ZM178.103 14.8718C177.555 14.8718 177.092 14.6822 176.713 14.303C176.333 13.9238 176.144 13.4604 176.144 12.9127C176.144 12.3649 176.333 11.9015 176.713 11.5223C177.092 11.1431 177.555 10.9535 178.103 10.9535C178.63 10.9535 179.072 11.1431 179.43 11.5223C179.809 11.9015 179.999 12.3649 179.999 12.9127C179.999 13.4604 179.809 13.9238 179.43 14.303C179.072 14.6822 178.63 14.8718 178.103 14.8718ZM179.493 17.684V35H176.618V17.684H179.493ZM192.831 17.368C194.937 17.368 196.644 18.0105 197.95 19.2956C199.256 20.5595 199.909 22.3922 199.909 24.7937V35H197.065V25.2045C197.065 23.4771 196.633 22.1605 195.769 21.2547C194.906 20.3278 193.726 19.8643 192.23 19.8643C190.714 19.8643 189.502 20.3383 188.597 21.2863C187.712 22.2342 187.269 23.614 187.269 25.4257V35H184.394V17.684H187.269V20.1487C187.838 19.264 188.607 18.5793 189.576 18.0948C190.566 17.6103 191.651 17.368 192.831 17.368ZM206.091 14.8718C205.543 14.8718 205.08 14.6822 204.701 14.303C204.322 13.9238 204.132 13.4604 204.132 12.9127C204.132 12.3649 204.322 11.9015 204.701 11.5223C205.08 11.1431 205.543 10.9535 206.091 10.9535C206.618 10.9535 207.06 11.1431 207.418 11.5223C207.797 11.9015 207.987 12.3649 207.987 12.9127C207.987 13.4604 207.797 13.9238 207.418 14.303C207.06 14.6822 206.618 14.8718 206.091 14.8718ZM207.481 17.684V35H204.606V17.684H207.481ZM211.308 26.3104C211.308 24.5198 211.666 22.961 212.382 21.6338C213.098 20.2856 214.088 19.2429 215.352 18.5056C216.637 17.7683 218.101 17.3996 219.745 17.3996C221.872 17.3996 223.621 17.9157 224.99 18.948C226.38 19.9802 227.297 21.4126 227.739 23.2454H224.642C224.347 22.1921 223.768 21.36 222.904 20.7491C222.062 20.1382 221.009 19.8327 219.745 19.8327C218.101 19.8327 216.774 20.4015 215.763 21.539C214.752 22.6555 214.246 24.246 214.246 26.3104C214.246 28.3959 214.752 30.0074 215.763 31.145C216.774 32.2825 218.101 32.8513 219.745 32.8513C221.009 32.8513 222.062 32.5564 222.904 31.9665C223.747 31.3767 224.326 30.5341 224.642 29.4387H227.739C227.276 31.2082 226.349 32.6301 224.958 33.7045C223.568 34.7577 221.83 35.2844 219.745 35.2844C218.101 35.2844 216.637 34.9157 215.352 34.1784C214.088 33.4411 213.098 32.3984 212.382 31.0502C211.666 29.702 211.308 28.1221 211.308 26.3104Z" fill="#303F5F"/>
</svg>
