<svg width="96" height="96" viewBox="0 0 96 96" fill="none" xmlns="http://www.w3.org/2000/svg">
<g clip-path="url(#clip0_154_204)">
<path d="M52.0005 80.0003C57.3029 79.994 62.3863 77.8848 66.1356 74.1354C69.885 70.3861 71.9941 65.3027 72.0005 60.0003V24.9723C72.0067 22.8698 71.5955 20.7869 70.7908 18.8444C69.9861 16.9019 68.8038 15.1385 67.3125 13.6563L58.3445 4.68831C56.8623 3.19701 55.0989 2.01472 53.1564 1.20999C51.2139 0.405264 49.1311 -0.00590767 47.0285 0.000313699H28.0005C22.6981 0.00666513 17.6147 2.11584 13.8654 5.86519C10.116 9.61454 8.00684 14.6979 8.00049 20.0003V60.0003C8.00684 65.3027 10.116 70.3861 13.8654 74.1354C17.6147 77.8848 22.6981 79.994 28.0005 80.0003H52.0005ZM16.0005 60.0003V20.0003C16.0005 16.8177 17.2648 13.7655 19.5152 11.515C21.7656 9.2646 24.8179 8.00031 28.0005 8.00031C28.0005 8.00031 47.6765 8.05631 48.0005 8.09631V16.0003C48.0005 18.122 48.8433 20.1569 50.3436 21.6572C51.8439 23.1575 53.8788 24.0003 56.0005 24.0003H63.9045C63.9445 24.3243 64.0005 60.0003 64.0005 60.0003C64.0005 63.1829 62.7362 66.2352 60.4858 68.4856C58.2353 70.736 55.1831 72.0003 52.0005 72.0003H28.0005C24.8179 72.0003 21.7656 70.736 19.5152 68.4856C17.2648 66.2352 16.0005 63.1829 16.0005 60.0003ZM88.0005 32.0003V76.0003C87.9941 81.3027 85.885 86.3861 82.1356 90.1354C78.3863 93.8848 73.3029 95.994 68.0005 96.0003H32.0005C30.9396 96.0003 29.9222 95.5789 29.1721 94.8287C28.4219 94.0786 28.0005 93.0612 28.0005 92.0003C28.0005 90.9394 28.4219 89.922 29.1721 89.1719C29.9222 88.4217 30.9396 88.0003 32.0005 88.0003H68.0005C71.1831 88.0003 74.2353 86.736 76.4858 84.4856C78.7362 82.2352 80.0005 79.1829 80.0005 76.0003V32.0003C80.0005 30.9394 80.4219 29.922 81.1721 29.1719C81.9222 28.4217 82.9396 28.0003 84.0005 28.0003C85.0614 28.0003 86.0788 28.4217 86.8289 29.1719C87.5791 29.922 88.0005 30.9394 88.0005 32.0003Z" fill="#353D91"/>
</g>
<path fill-rule="evenodd" clip-rule="evenodd" d="M29.017 27.8915L29.7862 29.0453L30.1813 29.6378L26.0001 36.272H29.6052L31.9467 32.2766L34.6041 36.272H38.3021L33.9908 29.8051L38.1348 23.2267H34.5297L32.2254 27.1663L31.5704 26.1814L30.2288 23.8792C31.1827 23.5942 31.9013 23.1111 32.3844 22.4297C32.88 21.7483 33.1277 20.974 33.1277 20.1068C33.1277 19.3387 32.9481 18.645 32.5888 18.0255C32.2296 17.3937 31.6845 16.8982 30.9535 16.5389C30.235 16.1796 29.3616 16 28.3333 16H23V29.0453H26.1777V24.1208H26.5032L29.017 27.8915ZM28.1475 21.8722H26.1777V18.6388H28.1475C28.7298 18.6388 29.1634 18.7813 29.4483 19.0662C29.7456 19.3511 29.8943 19.7414 29.8943 20.2369C29.8943 20.7572 29.7456 21.1599 29.4483 21.4448C29.1634 21.7298 28.7298 21.8722 28.1475 21.8722Z" fill="#353D91"/>
<rect x="23" y="41" width="35" height="3" rx="1.5" fill="#353D91"/>
<rect x="23" y="46" width="25" height="3" rx="1.5" fill="#353D91"/>
<rect x="23" y="51" width="30" height="3" rx="1.5" fill="#353D91"/>
<defs>
<clipPath id="clip0_154_204">
<rect width="96" height="96" fill="white"/>
</clipPath>
</defs>
</svg>
